<svg width="64" height="64" viewBox="0 0 64 64" fill="none" xmlns="http://www.w3.org/2000/svg">
  <rect x="6" y="6" width="52" height="52" rx="14" fill="#111827"/>
  <path d="M22 14H38L48 24V48C48 49.1046 47.1046 50 46 50H20C17.7909 50 16 48.2091 16 46V20C16 16.6863 18.6863 14 22 14Z" fill="#F9FAFB"/>
  <path d="M38 14V23C38 24.1046 38.8954 25 40 25H48L38 14Z" fill="#C7D2FE"/>
  <path d="M23 27H39" stroke="#111827" stroke-width="4" stroke-linecap="round"/>
  <path d="M23 36H34" stroke="#111827" stroke-width="4" stroke-linecap="round"/>
  <path d="M37.5 35.5L48.5 24.5" stroke="#2563EB" stroke-width="4.5" stroke-linecap="round"/>
  <path d="M17 24H9" stroke="#38BDF8" stroke-width="3" stroke-linecap="round"/>
  <path d="M17 32H11" stroke="#38BDF8" stroke-width="3" stroke-linecap="round"/>
  <path d="M17 40H13" stroke="#38BDF8" stroke-width="3" stroke-linecap="round"/>
</svg>
